# xmcd
#
# Track frame offsets:
#	150
#	1430
#	18442
#	40233
#	55427
#	80634
#	102405
#	123055
#	145245
#	162040
#
# Disc length: 2364 seconds
#
# Revision: 13
# Processed by: cddbd v1.5.2PL0 Copyright (c) Steve Scherf et al.
# Submitted via: Jack! The Knife 20 Magnifico
#
DISCID=7b093a0a
DTITLE=Coroner - Punishment For Decadence
DYEAR=1988
DGENRE=Metal
TTITLE0=Intro
TTITLE1=Absorbed
TTITLE2=Masked Jackal
TTITLE3=Arc-Lite
TTITLE4=Skeleton On Your Shoulder
TTITLE5=Sudden Fall
TTITLE6=Shadow Of A Lost Dream
TTITLE7=The New Breed
TTITLE8=Voyage To Eternity
TTITLE9=Purple Haze
EXTD=Guy Bidmead
EXTT0=Baron, Royce, Marky
EXTT1=Baron, Royce, Marky
EXTT2=Baron, Royce, Marky
EXTT3=Baron, Royce, Marky
EXTT4=Baron, Royce, Marky
EXTT5=Baron, Royce, Marky
EXTT6=Baron, Royce, Marky
EXTT7=Baron, Royce, Marky
EXTT8=Baron, Royce, Marky
EXTT9=Jimi Hendrix
PLAYORDER=
